<mxfile host="65bd71144e">
    <diagram id="8dLN2obSy_jnmV0sUkps" name="Page-1">
        <mxGraphModel dx="1123" dy="516" grid="1" gridSize="10" guides="1" tooltips="1" connect="1" arrows="1" fold="1" page="1" pageScale="1" pageWidth="827" pageHeight="1169" math="0" shadow="0">
            <root>
                <mxCell id="0"/>
                <mxCell id="1" parent="0"/>
                <mxCell id="2" value="" style="whiteSpace=wrap;html=1;fillColor=#f1f1f1;" vertex="1" parent="1">
                    <mxGeometry x="40" y="40" width="200" height="360" as="geometry"/>
                </mxCell>
                <mxCell id="3" value="" style="whiteSpace=wrap;html=1;fillColor=#ffffff;" vertex="1" parent="1">
                    <mxGeometry x="40" y="40" width="200" height="20" as="geometry"/>
                </mxCell>
                <mxCell id="4" value="" style="whiteSpace=wrap;html=1;fillColor=#ffffff;" vertex="1" parent="1">
                    <mxGeometry x="80" y="70" width="120" height="140" as="geometry"/>
                </mxCell>
                <mxCell id="6" value="" style="whiteSpace=wrap;html=1;fillColor=#ffffff;" vertex="1" parent="1">
                    <mxGeometry x="80" y="230" width="120" height="140" as="geometry"/>
                </mxCell>
                <mxCell id="7" value="" style="whiteSpace=wrap;html=1;fillColor=#ffffff;" vertex="1" parent="1">
                    <mxGeometry x="40" y="380" width="200" height="20" as="geometry"/>
                </mxCell>
                <mxCell id="8" value="Taalkundig" style="text;strokeColor=none;align=center;fillColor=none;html=1;verticalAlign=middle;whiteSpace=wrap;rounded=0;fontColor=#D44317;fontSize=10;" vertex="1" parent="1">
                    <mxGeometry x="80" y="35" width="50" height="30" as="geometry"/>
                </mxCell>
                <mxCell id="9" value="" style="whiteSpace=wrap;html=1;fontSize=10;fontColor=#D44317;fillColor=#f7f7f7;" vertex="1" parent="1">
                    <mxGeometry x="80" y="200" width="120" height="10" as="geometry"/>
                </mxCell>
                <mxCell id="10" value="" style="whiteSpace=wrap;html=1;fontSize=10;fontColor=#D44317;fillColor=#f7f7f7;" vertex="1" parent="1">
                    <mxGeometry x="80" y="360" width="120" height="10" as="geometry"/>
                </mxCell>
                <mxCell id="11" value="&lt;font color=&quot;#000000&quot; style=&quot;font-size: 8px;&quot;&gt;Home&lt;/font&gt;" style="text;strokeColor=none;align=center;fillColor=none;html=1;verticalAlign=middle;whiteSpace=wrap;rounded=0;fontSize=10;fontColor=#D44317;" vertex="1" parent="1">
                    <mxGeometry x="140" y="45" width="30" height="10" as="geometry"/>
                </mxCell>
                <mxCell id="12" value="&lt;font color=&quot;#000000&quot; style=&quot;font-size: 8px;&quot;&gt;Over&lt;/font&gt;" style="text;strokeColor=none;align=center;fillColor=none;html=1;verticalAlign=middle;whiteSpace=wrap;rounded=0;fontSize=10;fontColor=#D44317;" vertex="1" parent="1">
                    <mxGeometry x="170" y="45" width="30" height="10" as="geometry"/>
                </mxCell>
                <mxCell id="14" value="" style="whiteSpace=wrap;html=1;fontSize=8;fontColor=#000000;fillColor=default;strokeColor=#000000;glass=0;fillStyle=hatch;" vertex="1" parent="1">
                    <mxGeometry x="80" y="70" width="120" height="60" as="geometry"/>
                </mxCell>
                <mxCell id="15" value="" style="whiteSpace=wrap;html=1;fontSize=8;fontColor=#000000;fillColor=default;strokeColor=#000000;glass=0;fillStyle=hatch;" vertex="1" parent="1">
                    <mxGeometry x="80" y="230" width="120" height="60" as="geometry"/>
                </mxCell>
                <mxCell id="16" value="H1 title" style="text;strokeColor=none;align=center;fillColor=none;html=1;verticalAlign=middle;whiteSpace=wrap;rounded=0;glass=0;sketch=0;fillStyle=hatch;fontSize=8;fontColor=#000000;" vertex="1" parent="1">
                    <mxGeometry x="70" y="125" width="60" height="30" as="geometry"/>
                </mxCell>
                <mxCell id="17" value="H1 title" style="text;strokeColor=none;align=center;fillColor=none;html=1;verticalAlign=middle;whiteSpace=wrap;rounded=0;glass=0;sketch=0;fillStyle=hatch;fontSize=8;fontColor=#000000;" vertex="1" parent="1">
                    <mxGeometry x="70" y="285" width="60" height="30" as="geometry"/>
                </mxCell>
                <mxCell id="18" value="P description" style="text;strokeColor=none;align=center;fillColor=none;html=1;verticalAlign=middle;whiteSpace=wrap;rounded=0;glass=0;sketch=0;fillStyle=hatch;fontSize=8;fontColor=#000000;" vertex="1" parent="1">
                    <mxGeometry x="80" y="140" width="60" height="30" as="geometry"/>
                </mxCell>
                <mxCell id="19" value="P description" style="text;strokeColor=none;align=center;fillColor=none;html=1;verticalAlign=middle;whiteSpace=wrap;rounded=0;glass=0;sketch=0;fillStyle=hatch;fontSize=8;fontColor=#000000;" vertex="1" parent="1">
                    <mxGeometry x="80" y="300" width="60" height="30" as="geometry"/>
                </mxCell>
                <mxCell id="20" value="&amp;nbsp; P button" style="text;strokeColor=none;align=center;fillColor=none;html=1;verticalAlign=middle;whiteSpace=wrap;rounded=0;glass=0;sketch=0;fillStyle=hatch;fontSize=8;fontColor=#000000;" vertex="1" parent="1">
                    <mxGeometry x="70" y="180" width="60" height="30" as="geometry"/>
                </mxCell>
                <mxCell id="21" value="&amp;nbsp;P button" style="text;strokeColor=none;align=center;fillColor=none;html=1;verticalAlign=middle;whiteSpace=wrap;rounded=0;glass=0;sketch=0;fillStyle=hatch;fontSize=8;fontColor=#000000;" vertex="1" parent="1">
                    <mxGeometry x="70" y="340" width="60" height="30" as="geometry"/>
                </mxCell>
                <mxCell id="22" value="" style="whiteSpace=wrap;html=1;fillColor=#f1f1f1;" vertex="1" parent="1">
                    <mxGeometry x="280" y="45" width="80" height="360" as="geometry"/>
                </mxCell>
                <mxCell id="23" value="" style="whiteSpace=wrap;html=1;fillColor=#ffffff;" vertex="1" parent="1">
                    <mxGeometry x="280" y="45" width="80" height="20" as="geometry"/>
                </mxCell>
                <mxCell id="25" value="" style="whiteSpace=wrap;html=1;fillColor=#ffffff;" vertex="1" parent="1">
                    <mxGeometry x="290" y="235" width="60" height="140" as="geometry"/>
                </mxCell>
                <mxCell id="26" value="" style="whiteSpace=wrap;html=1;fillColor=#ffffff;" vertex="1" parent="1">
                    <mxGeometry x="280" y="385" width="80" height="20" as="geometry"/>
                </mxCell>
                <mxCell id="27" value="Taalkundig" style="text;strokeColor=none;align=center;fillColor=none;html=1;verticalAlign=middle;whiteSpace=wrap;rounded=0;fontColor=#D44317;fontSize=10;" vertex="1" parent="1">
                    <mxGeometry x="280" y="40" width="50" height="30" as="geometry"/>
                </mxCell>
                <mxCell id="29" value="" style="whiteSpace=wrap;html=1;fontSize=10;fontColor=#D44317;fillColor=#f7f7f7;" vertex="1" parent="1">
                    <mxGeometry x="285" y="365" width="65" height="10" as="geometry"/>
                </mxCell>
                <mxCell id="36" value="H1 title" style="text;strokeColor=none;align=center;fillColor=none;html=1;verticalAlign=middle;whiteSpace=wrap;rounded=0;glass=0;sketch=0;fillStyle=hatch;fontSize=8;fontColor=#000000;" vertex="1" parent="1">
                    <mxGeometry x="276" y="290" width="60" height="30" as="geometry"/>
                </mxCell>
                <mxCell id="38" value="P description" style="text;strokeColor=none;align=center;fillColor=none;html=1;verticalAlign=middle;whiteSpace=wrap;rounded=0;glass=0;sketch=0;fillStyle=hatch;fontSize=8;fontColor=#000000;" vertex="1" parent="1">
                    <mxGeometry x="287" y="310" width="60" height="30" as="geometry"/>
                </mxCell>
                <mxCell id="40" value="&amp;nbsp;P button" style="text;strokeColor=none;align=center;fillColor=none;html=1;verticalAlign=middle;whiteSpace=wrap;rounded=0;glass=0;sketch=0;fillStyle=hatch;fontSize=8;fontColor=#000000;" vertex="1" parent="1">
                    <mxGeometry x="279" y="345" width="60" height="30" as="geometry"/>
                </mxCell>
                <mxCell id="42" value="" style="whiteSpace=wrap;html=1;fillColor=#ffffff;" vertex="1" parent="1">
                    <mxGeometry x="290" y="70" width="60" height="140" as="geometry"/>
                </mxCell>
                <mxCell id="43" value="H1 title" style="text;strokeColor=none;align=center;fillColor=none;html=1;verticalAlign=middle;whiteSpace=wrap;rounded=0;glass=0;sketch=0;fillStyle=hatch;fontSize=8;fontColor=#000000;" vertex="1" parent="1">
                    <mxGeometry x="276" y="125" width="60" height="30" as="geometry"/>
                </mxCell>
                <mxCell id="44" value="P description" style="text;strokeColor=none;align=center;fillColor=none;html=1;verticalAlign=middle;whiteSpace=wrap;rounded=0;glass=0;sketch=0;fillStyle=hatch;fontSize=8;fontColor=#000000;" vertex="1" parent="1">
                    <mxGeometry x="287" y="145" width="60" height="30" as="geometry"/>
                </mxCell>
                <mxCell id="45" value="&amp;nbsp;P button" style="text;strokeColor=none;align=center;fillColor=none;html=1;verticalAlign=middle;whiteSpace=wrap;rounded=0;glass=0;sketch=0;fillStyle=hatch;fontSize=8;fontColor=#000000;" vertex="1" parent="1">
                    <mxGeometry x="278" y="178" width="60" height="30" as="geometry"/>
                </mxCell>
                <mxCell id="46" value="" style="whiteSpace=wrap;html=1;fontSize=8;fontColor=#000000;fillColor=default;strokeColor=#000000;glass=0;fillStyle=hatch;" vertex="1" parent="1">
                    <mxGeometry x="290" y="235" width="60" height="65" as="geometry"/>
                </mxCell>
                <mxCell id="47" value="" style="whiteSpace=wrap;html=1;fontSize=8;fontColor=#000000;fillColor=default;strokeColor=#000000;glass=0;fillStyle=hatch;" vertex="1" parent="1">
                    <mxGeometry x="290" y="70" width="60" height="65" as="geometry"/>
                </mxCell>
                <mxCell id="48" value="" style="whiteSpace=wrap;html=1;fontSize=10;fontColor=#D44317;fillColor=#f7f7f7;" vertex="1" parent="1">
                    <mxGeometry x="290" y="200" width="65" height="10" as="geometry"/>
                </mxCell>
                <mxCell id="49" value="" style="whiteSpace=wrap;html=1;fillColor=#f1f1f1;" vertex="1" parent="1">
                    <mxGeometry x="480" y="45" width="200" height="360" as="geometry"/>
                </mxCell>
                <mxCell id="50" value="" style="whiteSpace=wrap;html=1;fillColor=#ffffff;" vertex="1" parent="1">
                    <mxGeometry x="480" y="45" width="200" height="20" as="geometry"/>
                </mxCell>
                <mxCell id="51" value="" style="whiteSpace=wrap;html=1;fillColor=#ffffff;" vertex="1" parent="1">
                    <mxGeometry x="520" y="75" width="120" height="295" as="geometry"/>
                </mxCell>
                <mxCell id="53" value="" style="whiteSpace=wrap;html=1;fillColor=#ffffff;" vertex="1" parent="1">
                    <mxGeometry x="480" y="385" width="200" height="20" as="geometry"/>
                </mxCell>
                <mxCell id="54" value="Taalkundig" style="text;strokeColor=none;align=center;fillColor=none;html=1;verticalAlign=middle;whiteSpace=wrap;rounded=0;fontColor=#D44317;fontSize=10;" vertex="1" parent="1">
                    <mxGeometry x="520" y="40" width="50" height="30" as="geometry"/>
                </mxCell>
                <mxCell id="55" value="" style="whiteSpace=wrap;html=1;fontSize=10;fontColor=#D44317;fillColor=#f7f7f7;" vertex="1" parent="1">
                    <mxGeometry x="520" y="360" width="120" height="10" as="geometry"/>
                </mxCell>
                <mxCell id="57" value="&lt;font color=&quot;#000000&quot; style=&quot;font-size: 8px;&quot;&gt;Home&lt;/font&gt;" style="text;strokeColor=none;align=center;fillColor=none;html=1;verticalAlign=middle;whiteSpace=wrap;rounded=0;fontSize=10;fontColor=#D44317;" vertex="1" parent="1">
                    <mxGeometry x="580" y="50" width="30" height="10" as="geometry"/>
                </mxCell>
                <mxCell id="58" value="&lt;font color=&quot;#000000&quot; style=&quot;font-size: 8px;&quot;&gt;Over&lt;/font&gt;" style="text;strokeColor=none;align=center;fillColor=none;html=1;verticalAlign=middle;whiteSpace=wrap;rounded=0;fontSize=10;fontColor=#D44317;" vertex="1" parent="1">
                    <mxGeometry x="610" y="50" width="30" height="10" as="geometry"/>
                </mxCell>
                <mxCell id="59" value="" style="whiteSpace=wrap;html=1;fontSize=8;fontColor=#000000;fillColor=default;strokeColor=#000000;glass=0;fillStyle=hatch;" vertex="1" parent="1">
                    <mxGeometry x="520" y="75" width="120" height="60" as="geometry"/>
                </mxCell>
                <mxCell id="61" value="H1 title" style="text;strokeColor=none;align=center;fillColor=none;html=1;verticalAlign=middle;whiteSpace=wrap;rounded=0;glass=0;sketch=0;fillStyle=hatch;fontSize=8;fontColor=#000000;" vertex="1" parent="1">
                    <mxGeometry x="510" y="130" width="60" height="30" as="geometry"/>
                </mxCell>
                <mxCell id="63" value="P description" style="text;strokeColor=none;align=center;fillColor=none;html=1;verticalAlign=middle;whiteSpace=wrap;rounded=0;glass=0;sketch=0;fillStyle=hatch;fontSize=8;fontColor=#000000;" vertex="1" parent="1">
                    <mxGeometry x="520" y="145" width="60" height="30" as="geometry"/>
                </mxCell>
                <mxCell id="67" value="" style="whiteSpace=wrap;html=1;fillColor=#f1f1f1;" vertex="1" parent="1">
                    <mxGeometry x="720" y="50" width="80" height="360" as="geometry"/>
                </mxCell>
                <mxCell id="68" value="" style="whiteSpace=wrap;html=1;fillColor=#ffffff;" vertex="1" parent="1">
                    <mxGeometry x="720" y="50" width="80" height="20" as="geometry"/>
                </mxCell>
                <mxCell id="69" value="" style="whiteSpace=wrap;html=1;fillColor=#ffffff;" vertex="1" parent="1">
                    <mxGeometry x="730" y="240" width="60" height="140" as="geometry"/>
                </mxCell>
                <mxCell id="70" value="" style="whiteSpace=wrap;html=1;fillColor=#ffffff;" vertex="1" parent="1">
                    <mxGeometry x="720" y="390" width="80" height="20" as="geometry"/>
                </mxCell>
                <mxCell id="71" value="Taalkundig" style="text;strokeColor=none;align=center;fillColor=none;html=1;verticalAlign=middle;whiteSpace=wrap;rounded=0;fontColor=#D44317;fontSize=10;" vertex="1" parent="1">
                    <mxGeometry x="720" y="45" width="50" height="30" as="geometry"/>
                </mxCell>
                <mxCell id="72" value="" style="whiteSpace=wrap;html=1;fontSize=10;fontColor=#D44317;fillColor=#f7f7f7;" vertex="1" parent="1">
                    <mxGeometry x="725" y="370" width="65" height="10" as="geometry"/>
                </mxCell>
                <mxCell id="73" value="H1 title" style="text;strokeColor=none;align=center;fillColor=none;html=1;verticalAlign=middle;whiteSpace=wrap;rounded=0;glass=0;sketch=0;fillStyle=hatch;fontSize=8;fontColor=#000000;" vertex="1" parent="1">
                    <mxGeometry x="716" y="295" width="60" height="30" as="geometry"/>
                </mxCell>
                <mxCell id="74" value="P description" style="text;strokeColor=none;align=center;fillColor=none;html=1;verticalAlign=middle;whiteSpace=wrap;rounded=0;glass=0;sketch=0;fillStyle=hatch;fontSize=8;fontColor=#000000;" vertex="1" parent="1">
                    <mxGeometry x="727" y="315" width="60" height="30" as="geometry"/>
                </mxCell>
                <mxCell id="75" value="&amp;nbsp;P button" style="text;strokeColor=none;align=center;fillColor=none;html=1;verticalAlign=middle;whiteSpace=wrap;rounded=0;glass=0;sketch=0;fillStyle=hatch;fontSize=8;fontColor=#000000;" vertex="1" parent="1">
                    <mxGeometry x="719" y="350" width="60" height="30" as="geometry"/>
                </mxCell>
                <mxCell id="76" value="" style="whiteSpace=wrap;html=1;fillColor=#ffffff;" vertex="1" parent="1">
                    <mxGeometry x="730" y="75" width="60" height="140" as="geometry"/>
                </mxCell>
                <mxCell id="77" value="H1 title" style="text;strokeColor=none;align=center;fillColor=none;html=1;verticalAlign=middle;whiteSpace=wrap;rounded=0;glass=0;sketch=0;fillStyle=hatch;fontSize=8;fontColor=#000000;" vertex="1" parent="1">
                    <mxGeometry x="716" y="130" width="60" height="30" as="geometry"/>
                </mxCell>
                <mxCell id="78" value="P description" style="text;strokeColor=none;align=center;fillColor=none;html=1;verticalAlign=middle;whiteSpace=wrap;rounded=0;glass=0;sketch=0;fillStyle=hatch;fontSize=8;fontColor=#000000;" vertex="1" parent="1">
                    <mxGeometry x="727" y="150" width="60" height="30" as="geometry"/>
                </mxCell>
                <mxCell id="79" value="&amp;nbsp;P button" style="text;strokeColor=none;align=center;fillColor=none;html=1;verticalAlign=middle;whiteSpace=wrap;rounded=0;glass=0;sketch=0;fillStyle=hatch;fontSize=8;fontColor=#000000;" vertex="1" parent="1">
                    <mxGeometry x="718" y="183" width="60" height="30" as="geometry"/>
                </mxCell>
                <mxCell id="80" value="" style="whiteSpace=wrap;html=1;fontSize=8;fontColor=#000000;fillColor=default;strokeColor=#000000;glass=0;fillStyle=hatch;" vertex="1" parent="1">
                    <mxGeometry x="730" y="240" width="60" height="65" as="geometry"/>
                </mxCell>
                <mxCell id="81" value="" style="whiteSpace=wrap;html=1;fontSize=8;fontColor=#000000;fillColor=default;strokeColor=#000000;glass=0;fillStyle=hatch;" vertex="1" parent="1">
                    <mxGeometry x="730" y="75" width="60" height="65" as="geometry"/>
                </mxCell>
                <mxCell id="82" value="" style="whiteSpace=wrap;html=1;fontSize=10;fontColor=#D44317;fillColor=#f7f7f7;" vertex="1" parent="1">
                    <mxGeometry x="730" y="205" width="65" height="10" as="geometry"/>
                </mxCell>
            </root>
        </mxGraphModel>
    </diagram>
</mxfile>